<mxfile host="app.diagrams.net" agent="Mozilla/5.0 (X11; Ubuntu; Linux x86_64; rv:137.0) Gecko/20100101 Firefox/137.0" version="26.2.5">
  <diagram name="Page-1" id="c4acf3e9-155e-7222-9cf6-157b1a14988f">
    <mxGraphModel grid="1" page="1" gridSize="10" guides="1" tooltips="1" connect="1" arrows="1" fold="1" pageScale="1" pageWidth="850" pageHeight="1100" background="none" math="0" shadow="0">
      <root>
        <mxCell id="0" />
        <mxCell id="1" parent="0" />
        <mxCell id="5d2195bd80daf111-26" style="rounded=0;html=1;labelBackgroundColor=none;startFill=1;endArrow=classicThin;endFill=1;endSize=20;fontFamily=Verdana;fontSize=10;exitX=0.996;exitY=0.095;exitDx=0;exitDy=0;exitPerimeter=0;entryX=0;entryY=0.25;entryDx=0;entryDy=0;startArrow=classicThin;startSize=20;" edge="1" parent="1" source="5d2195bd80daf111-18" target="8oTonFGsOieSQczdb_-b-65">
          <mxGeometry relative="1" as="geometry">
            <mxPoint x="660" y="350" as="sourcePoint" />
            <mxPoint x="490" y="150" as="targetPoint" />
          </mxGeometry>
        </mxCell>
        <mxCell id="8oTonFGsOieSQczdb_-b-58" value="1 tiene *" style="edgeLabel;html=1;align=center;verticalAlign=middle;resizable=0;points=[];" connectable="0" vertex="1" parent="5d2195bd80daf111-26">
          <mxGeometry x="0.0465" relative="1" as="geometry">
            <mxPoint x="-1" as="offset" />
          </mxGeometry>
        </mxCell>
        <mxCell id="5d2195bd80daf111-21" style="rounded=1;html=1;labelBackgroundColor=none;startFill=0;endArrow=blockThin;endFill=1;endSize=10;fontFamily=Verdana;fontSize=10;dashed=1;exitX=0.5;exitY=0;exitDx=0;exitDy=0;entryX=0.25;entryY=1;entryDx=0;entryDy=0;strokeWidth=5;" edge="1" parent="1" target="5d2195bd80daf111-18">
          <mxGeometry relative="1" as="geometry">
            <mxPoint x="150" y="390" as="sourcePoint" />
            <mxPoint x="360" y="390" as="targetPoint" />
          </mxGeometry>
        </mxCell>
        <mxCell id="5d2195bd80daf111-18" value="&lt;p style=&quot;margin:0px;margin-top:4px;text-align:center;&quot;&gt;&lt;i&gt;&amp;lt;&amp;lt;Interface&amp;gt;&amp;gt;&lt;/i&gt;&lt;br&gt;&lt;b&gt;Usuario&lt;/b&gt;&lt;/p&gt;&lt;hr size=&quot;1&quot;&gt;&lt;p style=&quot;margin:0px;margin-left:4px;&quot;&gt;+ nombre: string&lt;br&gt;+ apellido: string&lt;/p&gt;&lt;p style=&quot;margin:0px;margin-left:4px;&quot;&gt;+ username: string&lt;/p&gt;&lt;p style=&quot;margin:0px;margin-left:4px;&quot;&gt;+ password: string&lt;/p&gt;&lt;div&gt;&amp;nbsp;+ balance: Double &lt;br&gt;&lt;/div&gt;&lt;div&gt;&amp;nbsp;+ viajes(): List&amp;lt;Viaje&amp;gt;&lt;/div&gt;&lt;hr size=&quot;1&quot;&gt;&amp;nbsp;+ calificaciones(): List&amp;lt;Calificacion&amp;gt;" style="verticalAlign=top;align=left;overflow=fill;fontSize=12;fontFamily=Helvetica;html=1;rounded=0;shadow=0;comic=0;labelBackgroundColor=none;strokeWidth=1" vertex="1" parent="1">
          <mxGeometry x="100" y="80" width="190" height="163" as="geometry" />
        </mxCell>
        <mxCell id="8oTonFGsOieSQczdb_-b-3" style="rounded=0;orthogonalLoop=1;jettySize=auto;html=1;strokeColor=default;dashed=1;endArrow=blockThin;endFill=1;exitX=0.5;exitY=0;exitDx=0;exitDy=0;endSize=10;entryX=0.75;entryY=1;entryDx=0;entryDy=0;strokeWidth=5;" edge="1" parent="1" source="8oTonFGsOieSQczdb_-b-61" target="5d2195bd80daf111-18">
          <mxGeometry relative="1" as="geometry">
            <mxPoint x="540" y="407" as="sourcePoint" />
            <mxPoint x="160" y="240" as="targetPoint" />
          </mxGeometry>
        </mxCell>
        <mxCell id="8oTonFGsOieSQczdb_-b-11" value="Moto" style="swimlane;html=1;fontStyle=0;childLayout=stackLayout;horizontal=1;startSize=26;fillColor=none;horizontalStack=0;resizeParent=1;resizeLast=0;collapsible=1;marginBottom=0;swimlaneFillColor=#ffffff;rounded=0;shadow=0;comic=0;labelBackgroundColor=none;strokeWidth=1;fontFamily=Verdana;fontSize=10;align=center;" vertex="1" parent="1">
          <mxGeometry x="220" y="670" width="160" height="52" as="geometry" />
        </mxCell>
        <mxCell id="8oTonFGsOieSQczdb_-b-12" value="+ plus(): double" style="text;html=1;strokeColor=none;fillColor=none;align=left;verticalAlign=top;spacingLeft=4;spacingRight=4;whiteSpace=wrap;overflow=hidden;rotatable=0;points=[[0,0.5],[1,0.5]];portConstraint=eastwest;" vertex="1" parent="8oTonFGsOieSQczdb_-b-11">
          <mxGeometry y="26" width="160" height="26" as="geometry" />
        </mxCell>
        <mxCell id="8oTonFGsOieSQczdb_-b-15" value="Simple" style="swimlane;html=1;fontStyle=0;childLayout=stackLayout;horizontal=1;startSize=26;fillColor=none;horizontalStack=0;resizeParent=1;resizeLast=0;collapsible=1;marginBottom=0;swimlaneFillColor=#ffffff;rounded=0;shadow=0;comic=0;labelBackgroundColor=none;strokeWidth=1;fontFamily=Verdana;fontSize=10;align=center;" vertex="1" parent="1">
          <mxGeometry x="400" y="670" width="160" height="52" as="geometry" />
        </mxCell>
        <mxCell id="8oTonFGsOieSQczdb_-b-16" value="+ plus(): double" style="text;html=1;strokeColor=none;fillColor=none;align=left;verticalAlign=top;spacingLeft=4;spacingRight=4;whiteSpace=wrap;overflow=hidden;rotatable=0;points=[[0,0.5],[1,0.5]];portConstraint=eastwest;" vertex="1" parent="8oTonFGsOieSQczdb_-b-15">
          <mxGeometry y="26" width="160" height="26" as="geometry" />
        </mxCell>
        <mxCell id="8oTonFGsOieSQczdb_-b-18" value="Premium" style="swimlane;html=1;fontStyle=0;childLayout=stackLayout;horizontal=1;startSize=26;fillColor=none;horizontalStack=0;resizeParent=1;resizeLast=0;collapsible=1;marginBottom=0;swimlaneFillColor=#ffffff;rounded=0;shadow=0;comic=0;labelBackgroundColor=none;strokeWidth=1;fontFamily=Verdana;fontSize=10;align=center;" vertex="1" parent="1">
          <mxGeometry x="570" y="670" width="160" height="52" as="geometry" />
        </mxCell>
        <mxCell id="8oTonFGsOieSQczdb_-b-19" value="+ plus(): double" style="text;html=1;strokeColor=none;fillColor=none;align=left;verticalAlign=top;spacingLeft=4;spacingRight=4;whiteSpace=wrap;overflow=hidden;rotatable=0;points=[[0,0.5],[1,0.5]];portConstraint=eastwest;" vertex="1" parent="8oTonFGsOieSQczdb_-b-18">
          <mxGeometry y="26" width="160" height="26" as="geometry" />
        </mxCell>
        <mxCell id="8oTonFGsOieSQczdb_-b-20" style="rounded=0;orthogonalLoop=1;jettySize=auto;html=1;strokeColor=default;endArrow=blockThin;endFill=1;exitX=0.5;exitY=0;exitDx=0;exitDy=0;endSize=20;entryX=0.75;entryY=1;entryDx=0;entryDy=0;strokeWidth=1;" edge="1" parent="1" source="8oTonFGsOieSQczdb_-b-18" target="8oTonFGsOieSQczdb_-b-61">
          <mxGeometry relative="1" as="geometry">
            <mxPoint x="480" y="430" as="sourcePoint" />
            <mxPoint x="500" y="690" as="targetPoint" />
          </mxGeometry>
        </mxCell>
        <mxCell id="8oTonFGsOieSQczdb_-b-21" style="rounded=0;orthogonalLoop=1;jettySize=auto;html=1;strokeColor=default;endArrow=blockThin;endFill=1;exitX=0.5;exitY=0;exitDx=0;exitDy=0;endSize=20;entryX=0.5;entryY=1;entryDx=0;entryDy=0;" edge="1" parent="1" source="8oTonFGsOieSQczdb_-b-15" target="8oTonFGsOieSQczdb_-b-61">
          <mxGeometry relative="1" as="geometry">
            <mxPoint x="760" y="600" as="sourcePoint" />
            <mxPoint x="420" y="710" as="targetPoint" />
          </mxGeometry>
        </mxCell>
        <mxCell id="8oTonFGsOieSQczdb_-b-22" style="rounded=0;orthogonalLoop=1;jettySize=auto;html=1;strokeColor=default;endArrow=blockThin;endFill=1;exitX=0.5;exitY=0;exitDx=0;exitDy=0;endSize=20;entryX=0.25;entryY=1;entryDx=0;entryDy=0;" edge="1" parent="1" source="8oTonFGsOieSQczdb_-b-11" target="8oTonFGsOieSQczdb_-b-61">
          <mxGeometry relative="1" as="geometry">
            <mxPoint x="770" y="610" as="sourcePoint" />
            <mxPoint x="300" y="680" as="targetPoint" />
          </mxGeometry>
        </mxCell>
        <mxCell id="8oTonFGsOieSQczdb_-b-60" value="&lt;p style=&quot;margin:0px;margin-top:4px;text-align:center;&quot;&gt;&lt;b&gt;Cliente&lt;/b&gt;&lt;/p&gt;&lt;hr size=&quot;1&quot;&gt;&amp;nbsp;+ celular: integer&lt;p style=&quot;margin:0px;margin-left:4px;&quot;&gt;+ viajes: List&amp;lt;Viaje&amp;gt;&lt;/p&gt;&lt;hr size=&quot;1&quot;&gt;&lt;div&gt;&amp;nbsp;+ pedirViaje(viaje):void&lt;/div&gt;&lt;div&gt;&amp;nbsp;+ calificarChofer():void&lt;/div&gt;&lt;div&gt;&amp;nbsp;+ calificaciones(): List&amp;lt;Calificacion&amp;gt;&lt;/div&gt;&lt;div&gt;&amp;nbsp;+ eliminarCalificacion(calificacion):void&lt;/div&gt;&lt;div&gt;&lt;br&gt;&lt;/div&gt;" style="verticalAlign=top;align=left;overflow=fill;fontSize=12;fontFamily=Helvetica;html=1;rounded=0;shadow=0;comic=0;labelBackgroundColor=none;strokeWidth=1" vertex="1" parent="1">
          <mxGeometry x="20" y="340" width="220" height="150" as="geometry" />
        </mxCell>
        <mxCell id="8oTonFGsOieSQczdb_-b-61" value="&lt;p style=&quot;margin:0px;margin-top:4px;text-align:center;&quot;&gt;&lt;b&gt;Chofer&lt;/b&gt;&lt;/p&gt;&lt;hr size=&quot;1&quot;&gt;&lt;div&gt;&amp;nbsp;+ viajes: List&amp;lt;Viaje&amp;gt;&lt;/div&gt;&lt;p style=&quot;margin:0px;margin-left:4px;&quot;&gt;+ precioBase: Double&lt;/p&gt;&lt;p style=&quot;margin:0px;margin-left:4px;&quot;&gt;+ modeloVehic: String&lt;/p&gt;&lt;p style=&quot;margin:0px;margin-left:4px;&quot;&gt;+ marcaVehic: String&lt;/p&gt;&lt;p style=&quot;margin:0px;margin-left:4px;&quot;&gt;+ patenteVehic: String&lt;/p&gt;&lt;hr size=&quot;1&quot;&gt;&lt;div&gt;&amp;nbsp;+ disponible(Date):Boolean&lt;/div&gt;&lt;div&gt;&amp;nbsp;+ precioViaje(viaje): Double&lt;/div&gt;&lt;div&gt;&lt;div&gt;&amp;nbsp;+ puntaje(): Integer&lt;/div&gt;&lt;div&gt;&amp;nbsp;+ calificaciones(): List&amp;lt;Calificaciones&amp;gt;&lt;/div&gt;&lt;br&gt;&lt;/div&gt;&lt;div&gt;&lt;br&gt;&lt;/div&gt;" style="verticalAlign=top;align=left;overflow=fill;fontSize=12;fontFamily=Helvetica;html=1;rounded=0;shadow=0;comic=0;labelBackgroundColor=none;strokeWidth=1" vertex="1" parent="1">
          <mxGeometry x="345" y="390" width="215" height="190" as="geometry" />
        </mxCell>
        <mxCell id="8oTonFGsOieSQczdb_-b-62" value="&lt;p style=&quot;margin:0px;margin-top:4px;text-align:center;&quot;&gt;&lt;b&gt;Calificacion&lt;/b&gt;&lt;/p&gt;&lt;hr size=&quot;1&quot;&gt;&amp;nbsp;+ puntaje: Integer&lt;p style=&quot;margin:0px;margin-left:4px;&quot;&gt;+ detalle: String&lt;/p&gt;&lt;p style=&quot;margin:0px;margin-left:4px;&quot;&gt;+ fecha: Date&lt;/p&gt;" style="verticalAlign=top;align=left;overflow=fill;fontSize=12;fontFamily=Helvetica;html=1;rounded=0;shadow=0;comic=0;labelBackgroundColor=none;strokeWidth=1" vertex="1" parent="1">
          <mxGeometry x="460" y="280" width="130" height="87" as="geometry" />
        </mxCell>
        <mxCell id="8oTonFGsOieSQczdb_-b-65" value="&lt;p style=&quot;margin:0px;margin-top:4px;text-align:center;&quot;&gt;&lt;b&gt;Viaje&lt;/b&gt;&lt;/p&gt;&lt;hr size=&quot;1&quot;&gt;&lt;div&gt;&amp;nbsp;+ origen: String&lt;/div&gt;&lt;div&gt;&amp;nbsp;+ destino: String&lt;/div&gt;&lt;div&gt;&amp;nbsp;+ tiempo: Integer&lt;/div&gt;&lt;p style=&quot;margin:0px;margin-left:4px;&quot;&gt;+ pasajeros: Integer&lt;/p&gt;&lt;p style=&quot;margin:0px;margin-left:4px;&quot;&gt;+ fecha: Date&lt;/p&gt;&lt;p style=&quot;margin:0px;margin-left:4px;&quot;&gt;+ cliente: Cliente&lt;/p&gt;&lt;p style=&quot;margin:0px;margin-left:4px;&quot;&gt;+ chofer:Chofer&lt;/p&gt;&lt;hr size=&quot;1&quot;&gt;&lt;div&gt;&amp;nbsp;+ finalizado(): Boolean&lt;/div&gt;&lt;div&gt;&lt;div&gt;&amp;nbsp;+ fechaFinalizacion(): Date&lt;/div&gt;&lt;br&gt;&lt;/div&gt;" style="verticalAlign=top;align=left;overflow=fill;fontSize=12;fontFamily=Helvetica;html=1;rounded=0;shadow=0;comic=0;labelBackgroundColor=none;strokeWidth=1" vertex="1" parent="1">
          <mxGeometry x="430" y="30" width="190" height="180" as="geometry" />
        </mxCell>
        <mxCell id="Agi6vWtk9h-BDqWn0Wgz-1" style="rounded=0;html=1;labelBackgroundColor=none;startFill=0;endArrow=classicThin;endFill=1;endSize=20;fontFamily=Verdana;fontSize=10;entryX=0.5;entryY=0;entryDx=0;entryDy=0;startArrow=none;targetPerimeterSpacing=16;sourcePerimeterSpacing=3;startSize=20;exitX=0.5;exitY=1;exitDx=0;exitDy=0;" edge="1" parent="1" source="8oTonFGsOieSQczdb_-b-65" target="8oTonFGsOieSQczdb_-b-62">
          <mxGeometry relative="1" as="geometry">
            <mxPoint x="310" y="212" as="sourcePoint" />
            <mxPoint x="480" y="150" as="targetPoint" />
          </mxGeometry>
        </mxCell>
        <mxCell id="Agi6vWtk9h-BDqWn0Wgz-2" value="1 tiene 1" style="edgeLabel;html=1;align=center;verticalAlign=middle;resizable=0;points=[];" connectable="0" vertex="1" parent="Agi6vWtk9h-BDqWn0Wgz-1">
          <mxGeometry x="0.0465" relative="1" as="geometry">
            <mxPoint x="-1" as="offset" />
          </mxGeometry>
        </mxCell>
        <mxCell id="DzGIxCYuRQPVHjKWR7Yu-1" style="rounded=0;html=1;dashed=1;labelBackgroundColor=none;startFill=0;endArrow=open;endFill=0;endSize=10;fontFamily=Verdana;fontSize=10;exitX=1;exitY=0.5;exitDx=0;exitDy=0;entryX=0;entryY=0.25;entryDx=0;entryDy=0;" edge="1" parent="1" source="5d2195bd80daf111-18" target="8oTonFGsOieSQczdb_-b-62">
          <mxGeometry relative="1" as="geometry">
            <mxPoint x="270" y="433" as="sourcePoint" />
            <mxPoint x="351" y="430" as="targetPoint" />
          </mxGeometry>
        </mxCell>
      </root>
    </mxGraphModel>
  </diagram>
</mxfile>
